<svg width="18" height="14" viewBox="0 0 18 14" fill="none" xmlns="http://www.w3.org/2000/svg">
<path d="M0.75 12.6699C0.75 13.2666 1.23748 13.7499 1.83811 13.7499H1.85375C1.24393 13.7499 0.75 13.2666 0.75 12.6699Z" fill="#FBBC05"/>
<path d="M10.1001 4.29998V7.11967L13.9016 4.05338V1.32999C13.9016 0.733297 13.4141 0.25 12.8135 0.25H4.57767L4.57031 4.29998H10.1001Z" fill="#FBBC05"/>
<path d="M10.1001 9.94078H4.56113L4.55469 13.7505H12.8135C13.415 13.7505 13.9016 13.2672 13.9016 12.6705V10.2117L10.1001 7.12109V9.94078Z" fill="#34A853"/>
<path d="M4.57816 0.25L0.75 4.29998H4.57172L4.57816 0.25Z" fill="#EA4335"/>
<path d="M0.75 9.94043V12.6701C0.75 13.2668 1.24393 13.7501 1.85375 13.7501H4.55517L4.56161 9.94043H0.75Z" fill="#1967D2"/>
<path d="M4.57172 4.2998H0.75V9.94008H4.56161L4.57172 4.2998Z" fill="#4285F4"/>
<path d="M17.2439 11.7102V2.44026C17.0296 1.20997 15.6803 2.62026 15.6803 2.62026L13.9023 4.05395V10.2108L16.4474 12.2799C17.3663 12.4005 17.2439 11.7102 17.2439 11.7102Z" fill="#34A853"/>
<path d="M10.1016 7.12007L13.904 10.2116V4.05469L10.1016 7.12007Z" fill="#188038"/>
</svg>
